<svg width="104" height="112" viewBox="0 0 104 112" fill="none" xmlns="http://www.w3.org/2000/svg">
<path d="M86.5148 12.5485C86.6281 12.6486 86.7415 12.7487 86.8583 12.8518C91.7847 17.2282 95.6368 22.4609 98.6866 28.2879C98.8079 28.5181 98.8079 28.5181 98.9317 28.753C101.242 33.1974 102.724 38.0385 103.513 42.978C103.572 43.3406 103.572 43.3406 103.631 43.7106C103.976 46.1241 104.008 48.5175 103.999 50.9527C103.998 51.1617 103.998 51.3708 103.997 51.5861C103.986 54.7026 103.894 57.7477 103.303 60.816C103.257 61.0613 103.211 61.3066 103.164 61.5594C102.026 67.4898 102.026 67.4898 101.205 68.5808C99.6969 69.1401 98.35 68.3352 96.9762 67.7117C94.6684 66.6407 92.951 65.5479 91.9711 63.1245C91.6652 62.2067 91.7225 61.3186 91.7219 60.357C91.7193 60.1677 91.7168 59.9785 91.7141 59.7836C91.7116 58.5934 91.8072 57.4498 91.9695 56.2705C92.2143 54.4779 92.2556 52.7075 92.2466 50.9002C92.2462 50.7401 92.2458 50.58 92.2454 50.4151C92.2353 47.8915 92.1109 45.4475 91.5514 42.978C91.5143 42.8118 91.4771 42.6456 91.4389 42.4743C90.0794 36.5622 87.4347 31.0863 83.5768 26.3992C83.4763 26.2771 83.3758 26.155 83.2723 26.0293C81.0889 23.3955 78.7704 21.0944 76.0218 19.0541C75.8518 18.9279 75.8518 18.9279 75.6782 18.7991C67.1799 12.562 56.1612 10.0437 45.7551 11.6233C45.2096 11.7149 44.6664 11.8144 44.1233 11.9189C43.9409 11.9538 43.7586 11.9887 43.5708 12.0247C39.4773 12.8397 35.6058 14.3166 31.9515 16.3259C31.819 16.3986 31.6866 16.4713 31.5502 16.5463C28.491 18.2504 25.8778 20.4273 23.3472 22.8316C23.2041 22.9611 23.061 23.0907 22.9136 23.2242C15.6803 30.0045 12.1292 40.5221 11.7344 50.2105C11.6336 52.6737 11.4228 55.3804 9.53426 57.196C9.11574 57.5242 8.6909 57.8103 8.23739 58.0879C8.05763 58.2035 8.05763 58.2035 7.87424 58.3215C6.03194 59.3748 3.00589 60.2109 0.89233 59.7667C0.0795373 59.0257 0.138107 57.8752 0.0528938 56.8287C0.0216992 56.1223 0.0137839 55.4167 0.0102662 54.7096C0.00805821 54.4126 0.00806141 54.4126 0.00580878 54.1095C0.00214955 53.4726 0.000799644 52.8357 0.000429094 52.1987C0.000287494 51.9814 0.000145892 51.764 0 51.5401C0.00329558 48.3619 0.0762131 45.2681 0.682471 42.1386C0.720716 41.9365 0.758961 41.7344 0.798364 41.5262C1.07213 40.1119 1.38614 38.7103 1.73177 37.3118C1.77008 37.1549 1.80839 36.998 1.84786 36.8364C3.88499 28.7104 8.556 21.2712 14.3233 15.2766C14.4492 15.1451 14.575 15.0135 14.7047 14.8779C16.4524 13.0604 18.232 11.3661 20.265 9.87124C20.613 9.61493 20.9567 9.35363 21.3003 9.09154C38.0162 -3.4547 62.0419 -3.66688 86.5148 12.5485Z" fill="#FF6600"/>
<path d="M48.1106 61.3669C48.3508 61.3669 48.5909 61.367 48.8384 61.367C52.9269 61.3745 56.877 61.6349 60.912 62.285C61.153 62.321 61.3941 62.3569 61.6425 62.394C73.481 64.1649 84.9412 68.1917 95.4207 73.9453C95.5669 74.0253 95.7131 74.1052 95.8638 74.1876C96.9761 74.8157 97.9673 75.4765 98.6866 76.5554C98.8283 78.0437 98.8283 78.0437 98.3062 78.7458C97.2249 79.5182 95.971 79.3723 94.6993 79.2836C93.5651 79.0935 92.4531 78.8268 91.3366 78.5548C91.0137 78.4785 90.6907 78.4024 90.3676 78.3267C89.6872 78.1666 89.0071 78.0052 88.3273 77.8425C86.5686 77.4221 84.807 77.0139 83.0455 76.6055C82.8736 76.5655 82.7016 76.5256 82.5244 76.4844C74.4261 74.6054 66.3319 73.3564 58.0002 73.3682C57.8324 73.3683 57.6647 73.3685 57.4918 73.3686C48.696 73.3865 40.128 74.7385 31.7416 77.3949C31.563 77.4513 31.3845 77.5078 31.2005 77.5659C26.0872 79.2091 20.9691 81.4628 16.3998 84.2956C15.3764 84.8991 14.4513 85.0568 13.274 84.9498C12.0549 84.4854 11.5091 83.3249 10.961 82.2023C10.7522 81.7341 10.5499 81.2636 10.3491 80.792C9.43178 78.6901 8.385 76.6625 7.31603 74.6353C7.19373 74.403 7.07144 74.1707 6.94544 73.9314C6.83548 73.724 6.72551 73.5166 6.61221 73.303C6.15426 72.3908 6.06868 71.6961 6.1388 70.6794C6.93151 68.9922 8.86611 68.5058 10.5199 67.9089C11.2818 67.6423 12.0477 67.3888 12.8149 67.138C13.0619 67.0566 13.0619 67.0566 13.3138 66.9736C20.1111 64.7396 27.0927 63.1863 34.1812 62.2195C34.4066 62.1885 34.6319 62.1576 34.8641 62.1258C39.2641 61.5673 43.678 61.3592 48.1106 61.3669Z" fill="#213B94"/>
<path d="M52.78 21.0869C52.9317 21.0872 53.0835 21.0876 53.2398 21.088C55.5667 21.0979 57.809 21.2094 60.0726 21.782C60.2893 21.8344 60.2893 21.8344 60.5104 21.8878C65.5298 23.1288 69.9251 25.6304 73.7134 29.1271C73.8736 29.2734 73.8736 29.2734 74.0369 29.4227C78.9191 33.9334 82.0346 40.0732 83.3669 46.5454C83.4062 46.7325 83.4454 46.9196 83.4858 47.1123C83.8541 49.1322 83.8506 51.1417 83.8414 53.1875C83.8391 53.7902 83.8414 54.3928 83.844 54.9955C83.8438 55.3813 83.8432 55.7671 83.8424 56.153C83.8433 56.3318 83.8441 56.5106 83.845 56.6949C83.8379 57.5974 83.8059 58.3233 83.3669 59.1369C82.9433 59.5516 82.6848 59.7447 82.0955 59.8263C80.6831 59.6941 79.3404 59.3549 77.9762 58.9795C77.7893 58.9292 77.6024 58.8789 77.4098 58.8271C75.9356 58.4014 74.4416 57.8747 73.6216 56.5005C73.2041 55.5821 73.0591 54.8388 73.0011 53.8355C72.5824 47.3115 70.9058 41.8017 66.0011 37.1673C61.6093 33.366 56.1232 31.9168 50.4191 32.275C44.8993 32.85 40.047 35.4521 36.4372 39.6594C34.0934 42.6285 32.8562 45.8693 32.135 49.5486C31.8475 50.9449 31.4556 51.8802 30.4153 52.8977C29.7468 53.3294 29.1904 53.4673 28.4101 53.615C28.0409 53.6876 28.0409 53.6876 27.6641 53.7617C26.3828 53.9818 25.1477 54.1368 23.8457 54.1528C23.4456 54.1609 23.4456 54.1609 23.0374 54.1691C22.2485 54.0957 21.8702 53.9509 21.2487 53.4707C20.04 51.6577 20.9135 48.3651 21.2964 46.3583C22.9538 38.2333 27.4353 31.2528 34.3124 26.5956C39.8928 22.9192 46.0878 21.0517 52.78 21.0869Z" fill="#FF6600"/>
<path d="M67.1684 82.1824C67.3665 82.1825 67.5645 82.1826 67.7685 82.1828C87.0943 82.2162 87.0943 82.2162 92.8106 86.6288C93.0775 87.4765 93.0801 87.9288 92.7844 88.7667C92.0662 89.8439 91.1065 90.4575 89.8726 90.8259C89.1329 90.9139 88.3994 90.9136 87.6551 90.9112C87.2142 90.9153 86.7732 90.9195 86.3323 90.9236C85.9882 90.9252 85.9882 90.9252 85.6372 90.9268C73.3105 90.9968 61.5852 93.3846 50.3319 98.5519C49.8169 98.788 49.2997 99.0189 48.782 99.249C42.9999 101.859 37.6497 105.407 32.8748 109.573C31.1551 111.06 31.1551 111.06 29.9709 111.077C29.7441 111.087 29.7441 111.087 29.5127 111.097C28.3642 110.81 27.7358 109.95 27.1305 108.997C26.9124 108.633 26.6963 108.269 26.482 107.903C25.5551 106.362 24.5964 104.856 23.5702 103.378C20.6999 99.2132 20.6999 99.2132 20.829 97.5414C21.4141 95.591 23.5889 94.4711 25.2491 93.5148C25.551 93.3395 25.551 93.3395 25.859 93.1607C26.4886 92.7983 27.1207 92.4406 27.7543 92.0851C27.948 91.9764 28.1417 91.8677 28.3413 91.7558C40.223 85.1656 53.6442 82.1663 67.1684 82.1824Z" fill="#213B94"/>
<path d="M61.0562 44.4338C62.8951 46.3686 64.045 49.0771 64.0639 51.7403C64.0178 52.5957 63.9671 53.1061 63.4433 53.7987C61.8389 54.917 59.2559 54.2395 57.4189 54.0496C57.0061 54.0084 56.5933 53.9671 56.1804 53.9259C55.6064 53.8683 55.0326 53.8097 54.4587 53.751C53.6069 53.6642 52.7549 53.5788 51.903 53.4933C51.2111 53.424 50.5193 53.3541 49.8275 53.2833C48.5789 53.1564 47.3309 53.0359 46.0797 52.9386C45.8667 52.9216 45.6538 52.9045 45.4344 52.887C45.0447 52.8565 44.6548 52.8282 44.2647 52.8026C43.2967 52.7261 42.6027 52.6247 41.8148 52.0018C41.306 50.9843 41.484 49.6841 41.7951 48.6277C42.9423 45.7598 44.6619 43.4951 47.4809 42.1385C52.2713 40.3108 57.1818 40.9634 61.0562 44.4338Z" fill="#FF6600"/>
</svg>
